<?xml version="1.0" encoding="UTF-8" standalone="no"?>
<!-- Created with Inkscape (http://www.inkscape.org/) -->

<svg
   width="128"
   height="128"
   viewBox="0 0 33.866666 33.866666"
   version="1.1"
   id="svg1"
   inkscape:version="1.4 (86a8ad7, 2024-10-11)"
   sodipodi:docname="blaster.svg"
   xmlns:inkscape="http://www.inkscape.org/namespaces/inkscape"
   xmlns:sodipodi="http://sodipodi.sourceforge.net/DTD/sodipodi-0.dtd"
   xmlns="http://www.w3.org/2000/svg"
   xmlns:svg="http://www.w3.org/2000/svg">
  <sodipodi:namedview
     id="namedview1"
     pagecolor="#505050"
     bordercolor="#eeeeee"
     borderopacity="1"
     inkscape:showpageshadow="0"
     inkscape:pageopacity="0"
     inkscape:pagecheckerboard="0"
     inkscape:deskcolor="#505050"
     inkscape:document-units="px"
     inkscape:zoom="8.8016274"
     inkscape:cx="74.134018"
     inkscape:cy="66.521789"
     inkscape:window-width="2560"
     inkscape:window-height="1494"
     inkscape:window-x="-11"
     inkscape:window-y="-11"
     inkscape:window-maximized="1"
     inkscape:current-layer="layer1" />
  <defs
     id="defs1" />
  <g
     inkscape:label="Layer 1"
     inkscape:groupmode="layer"
     id="layer1">
    <path
       id="rect9"
       style="fill:#252525;fill-opacity:1;stroke-width:2.38125;stroke-linecap:square;stroke-miterlimit:12.9"
       d="m 2.7062751,11.542069 h 9.1826519 c 0.516757,-0.0089 0.882765,0.168928 0.807737,0.892758 v 6.716941 H 2.7062751 Z"
       sodipodi:nodetypes="cccccc" />
    <path
       style="fill:#3c3c3c;fill-opacity:1;stroke-width:0.786871;stroke-linecap:square;stroke-miterlimit:12.9"
       d="M 3.8143248,8.8861501 C 2.9726243,10.930277 2.0106811,21.992625 3.874446,25.720155 H 16.919892 V 8.7633153 Z"
       id="path1"
       sodipodi:nodetypes="ccccc" />
    <path
       id="rect8"
       style="fill:#3f3f3f;fill-opacity:1;stroke-width:2.38125;stroke-linecap:square;stroke-miterlimit:12.9"
       d="m 2.7109901,13.979858 h 8.9552269 c 0.460854,0.149187 1.004272,0.16765 1.005101,1.04521 l 0.02567,5.606561 c -0.0171,0.540517 -0.277186,0.858301 -0.775258,0.957928 H 2.7109901 L 0.18588898,19.759632 0.09057498,13.769291 2.7109901,11.583115 Z"
       sodipodi:nodetypes="cccccccccc" />
    <ellipse
       style="fill:#ff1111;fill-opacity:1;stroke:none;stroke-width:2.63257;stroke-linecap:square;stroke-miterlimit:12.9"
       id="path11"
       cx="8.5237141"
       cy="17.961443"
       rx="2.1043582"
       ry="1.8917969" />
    <path
       style="fill:none;fill-opacity:1;stroke:#4d4d4d;stroke-width:0.786871;stroke-linecap:round;stroke-miterlimit:12.9;stroke-opacity:1"
       d="M 14.836789,8.6782908 C 13.986543,9.315975 13.752726,23.855176 14.709252,25.831997"
       id="path2" />
    <path
       style="fill:none;fill-opacity:1;stroke:#4d4d4d;stroke-width:0.786871;stroke-linecap:round;stroke-miterlimit:12.9;stroke-opacity:1"
       d="M 16.898635,25.683204 C 15.389241,24.21653 15.984829,9.145926 16.771098,8.5932662 17.64205,9.8473778 19.187644,17.010697 16.898635,25.683204 Z"
       id="path3"
       sodipodi:nodetypes="ccc" />
    <path
       style="fill:#c38ad9;fill-opacity:1;stroke:none;stroke-width:0.786871;stroke-linecap:round;stroke-miterlimit:12.9;stroke-opacity:1"
       d="m 16.877379,25.194312 c -1.13535,-1.891797 -0.804752,-14.687996 0.08502,-16.4097406 1.296625,1.0415494 1.679235,13.6676976 -0.08502,16.4097406 z"
       id="path4"
       sodipodi:nodetypes="ccc" />
  </g>
</svg>
