<?xml version="1.0" encoding="UTF-8" standalone="no"?>
<!-- Created with Inkscape (http://www.inkscape.org/) -->

<svg
   width="642.57812mm"
   height="642.57812mm"
   viewBox="0 0 642.57813 642.57813"
   version="1.1"
   id="svg1"
   inkscape:version="1.4 (86a8ad7, 2024-10-11)"
   sodipodi:docname="eye_iris_pupil.svg"
   xmlns:inkscape="http://www.inkscape.org/namespaces/inkscape"
   xmlns:sodipodi="http://sodipodi.sourceforge.net/DTD/sodipodi-0.dtd"
   xmlns="http://www.w3.org/2000/svg"
   xmlns:svg="http://www.w3.org/2000/svg">
  <sodipodi:namedview
     id="namedview1"
     pagecolor="#505050"
     bordercolor="#eeeeee"
     borderopacity="1"
     inkscape:showpageshadow="0"
     inkscape:pageopacity="0"
     inkscape:pagecheckerboard="0"
     inkscape:deskcolor="#505050"
     inkscape:document-units="mm"
     inkscape:zoom="0.19449033"
     inkscape:cx="681.2678"
     inkscape:cy="1946.1122"
     inkscape:window-width="2560"
     inkscape:window-height="1494"
     inkscape:window-x="-11"
     inkscape:window-y="-11"
     inkscape:window-maximized="1"
     inkscape:current-layer="layer1" />
  <defs
     id="defs1" />
  <g
     inkscape:label="Layer 1"
     inkscape:groupmode="layer"
     id="layer1"
     transform="translate(-460.41248,153.81424)">
    <circle
       style="fill:#167d1d;fill-opacity:1;stroke:none;stroke-width:2.38125;stroke-linecap:square;stroke-miterlimit:12.9"
       id="path2"
       cx="781.70154"
       cy="167.47482"
       r="321.28906" />
    <path
       id="path1"
       style="fill:#146f1a;fill-opacity:1;stroke-width:0.681;stroke-linecap:square;stroke-miterlimit:12.9"
       d="M 637.2637 223.01444 C 624.49944 225.70165 553.32564 256.93731 484.56449 287.85234 A 321.28906 321.28906 0 0 0 602.28961 433.48635 L 690.31886 258.38489 L 637.2637 223.01444 z " />
    <path
       id="path3"
       style="fill:#146f1a;fill-opacity:1;stroke-width:0.681;stroke-linecap:square;stroke-miterlimit:12.9"
       d="M 1102.719 156.41282 L 943.35199 190.36527 L 894.37772 269.26795 L 1028.7282 372.24719 A 321.28906 321.28906 0 0 0 1102.9908 167.47468 A 321.28906 321.28906 0 0 0 1102.719 156.41282 z " />
    <path
       id="path4"
       style="fill:#146f1a;fill-opacity:1;stroke-width:0.681;stroke-linecap:square;stroke-miterlimit:12.9"
       d="M 781.7014 -153.81424 A 321.28906 321.28906 0 0 0 679.00792 -136.25821 L 748.81606 50.244622 L 839.96244 58.406915 L 927.58396 -118.6815 A 321.28906 321.28906 0 0 0 781.7014 -153.81424 z " />
    <path
       id="path5"
       style="fill:#1b9723;fill-opacity:1;stroke-width:0.681;stroke-linecap:square;stroke-miterlimit:12.9"
       d="M 1023.0314 -44.498949 L 917.50448 78.812904 L 941.99187 114.18336 L 1092.3067 85.595953 A 321.28906 321.28906 0 0 0 1023.0314 -44.498949 z " />
    <path
       id="path6"
       style="fill:#1b9723;fill-opacity:1;stroke-width:0.681;stroke-linecap:square;stroke-miterlimit:12.9"
       d="M 508.81314 -1.460232 A 321.28906 321.28906 0 0 0 475.78674 70.630458 L 611.41618 133.2287 L 634.54294 104.66042 L 508.81314 -1.460232 z " />
    <path
       id="path7"
       style="fill:#1b9723;fill-opacity:1;stroke-width:0.681;stroke-linecap:square;stroke-miterlimit:12.9"
       d="M 761.05925 301.91763 L 741.8692 485.91519 A 321.28906 321.28906 0 0 0 781.7014 488.76411 A 321.28906 321.28906 0 0 0 829.82456 484.97158 L 797.78982 301.91763 L 761.05925 301.91763 z " />
    <circle
       style="fill:#000000;fill-opacity:1;stroke:none;stroke-width:1.44363;stroke-linecap:square;stroke-miterlimit:12.9"
       id="circle2"
       cx="781.70154"
       cy="167.47482"
       r="194.78136" />
  </g>
</svg>
