<?xml version="1.0" encoding="UTF-8" standalone="no"?>
<!-- Created with Inkscape (http://www.inkscape.org/) -->

<svg
   width="642.57812mm"
   height="642.57812mm"
   viewBox="0 0 642.57813 642.57813"
   version="1.1"
   id="svg1"
   inkscape:version="1.4 (86a8ad7, 2024-10-11)"
   sodipodi:docname="eye_iris_pupil.svg"
   xmlns:inkscape="http://www.inkscape.org/namespaces/inkscape"
   xmlns:sodipodi="http://sodipodi.sourceforge.net/DTD/sodipodi-0.dtd"
   xmlns="http://www.w3.org/2000/svg"
   xmlns:svg="http://www.w3.org/2000/svg">
  <sodipodi:namedview
     id="namedview1"
     pagecolor="#505050"
     bordercolor="#eeeeee"
     borderopacity="1"
     inkscape:showpageshadow="0"
     inkscape:pageopacity="0"
     inkscape:pagecheckerboard="0"
     inkscape:deskcolor="#505050"
     inkscape:document-units="mm"
     inkscape:zoom="0.27505086"
     inkscape:cx="1754.221"
     inkscape:cy="1459.73"
     inkscape:window-width="2560"
     inkscape:window-height="1494"
     inkscape:window-x="-11"
     inkscape:window-y="-11"
     inkscape:window-maximized="1"
     inkscape:current-layer="layer1" />
  <defs
     id="defs1" />
  <g
     inkscape:label="Layer 1"
     inkscape:groupmode="layer"
     id="layer1"
     transform="translate(-460.41248,153.81424)">
    <circle
       style="fill:#167d1d;fill-opacity:1;stroke:none;stroke-width:2.38125;stroke-linecap:square;stroke-miterlimit:12.9"
       id="path2"
       cx="781.70154"
       cy="167.47482"
       r="321.28906" />
    <path
       id="path1"
       style="fill:#146f1a;fill-opacity:1;stroke-width:0.681;stroke-linecap:square;stroke-miterlimit:12.9"
       d="m 740.19163,168.18367 c -12.76426,2.68721 -186.86599,88.75364 -255.62714,119.66867 23.90994,59.15757 64.89282,109.85619 117.72512,145.63401 L 751.88323,190.08692 Z"
       sodipodi:nodetypes="ccccc" />
    <path
       id="path3"
       style="fill:#146f1a;fill-opacity:1;stroke-width:0.681;stroke-linecap:square;stroke-miterlimit:12.9"
       d="m 1102.719,156.41282 -320.97348,24.33302 1.04678,18.30025 245.9359,173.2011 c 47.843,-57.52796 74.1075,-129.95009 74.2626,-204.77251 -0.027,-3.68857 -0.1177,-7.37641 -0.2718,-11.06186 z"
       sodipodi:nodetypes="cccccc" />
    <path
       id="path4"
       style="fill:#146f1a;fill-opacity:1;stroke-width:0.681;stroke-linecap:square;stroke-miterlimit:12.9"
       d="m 781.7014,-153.81424 c -34.95832,0.22607 -69.64541,6.15602 -102.69348,17.55603 l 91.93284,292.31659 7.45731,4.31452 149.18589,-279.0544 c -45.17284,-23.06132 -95.16364,-35.10055 -145.88256,-35.13274 z"
       sodipodi:nodetypes="cccccc" />
    <path
       id="path5"
       style="fill:#1b9723;fill-opacity:1;stroke-width:0.681;stroke-linecap:square;stroke-miterlimit:12.9"
       d="M 1023.0314,-44.498949 787.64213,161.54003 790.96677,159.39469 1092.3067,85.595953 C 1079.608,37.4487 1055.8923,-7.0880543 1023.0314,-44.498949 Z"
       sodipodi:nodetypes="ccccc" />
    <path
       id="path6"
       style="fill:#1b9723;fill-opacity:1;stroke-width:0.681;stroke-linecap:square;stroke-miterlimit:12.9"
       d="m 508.81314,-1.460232 c -13.94333,22.574318 -25.0366,46.788923 -33.0264,72.09069 l 258.75818,87.608772 24.08871,1.25196 z"
       sodipodi:nodetypes="ccccc" />
    <path
       id="path7"
       style="fill:#1b9723;fill-opacity:1;stroke-width:0.681;stroke-linecap:square;stroke-miterlimit:12.9"
       d="M 762.98314,187.44638 741.8692,485.91519 c 13.20548,1.77466 26.50857,2.72614 39.8322,2.84892 16.11346,-0.0556 32.19991,-1.32339 48.12316,-3.79253 L 771.81735,185.52249 Z"
       sodipodi:nodetypes="cccccc" />
  </g>
</svg>
