<?xml version="1.0" encoding="UTF-8" standalone="no"?>
<!-- Created with Inkscape (http://www.inkscape.org/) -->

<svg
   width="160.09473"
   height="152.78377"
   viewBox="0 0 42.358395 40.424041"
   version="1.1"
   id="svg1"
   inkscape:version="1.4 (86a8ad7, 2024-10-11)"
   sodipodi:docname="virus_enemy.svg"
   xmlns:inkscape="http://www.inkscape.org/namespaces/inkscape"
   xmlns:sodipodi="http://sodipodi.sourceforge.net/DTD/sodipodi-0.dtd"
   xmlns="http://www.w3.org/2000/svg"
   xmlns:svg="http://www.w3.org/2000/svg">
  <sodipodi:namedview
     id="namedview1"
     pagecolor="#505050"
     bordercolor="#eeeeee"
     borderopacity="1"
     inkscape:showpageshadow="0"
     inkscape:pageopacity="0"
     inkscape:pagecheckerboard="0"
     inkscape:deskcolor="#505050"
     inkscape:document-units="px"
     inkscape:zoom="3.1118452"
     inkscape:cx="87.729299"
     inkscape:cy="127.73772"
     inkscape:window-width="2560"
     inkscape:window-height="1494"
     inkscape:window-x="-11"
     inkscape:window-y="-11"
     inkscape:window-maximized="1"
     inkscape:current-layer="layer1"
     showguides="true">
    <sodipodi:guide
       position="54.98572,-9.1219705"
       orientation="1,0"
       id="guide1"
       inkscape:locked="false" />
    <sodipodi:guide
       position="61.018549,-15.336199"
       orientation="0.70710678,-0.70710678"
       id="guide4"
       inkscape:locked="false" />
  </sodipodi:namedview>
  <defs
     id="defs1" />
  <g
     inkscape:label="Layer 1"
     inkscape:groupmode="layer"
     id="layer1"
     transform="translate(19.955592,3.7001959)">
    <g
       id="g48"
       transform="rotate(17.98181,-7.7336191,8.8003881)"
       inkscape:transform-center-x="-1.26208"
       inkscape:transform-center-y="-1.8154012">
      <path
         style="fill:#572ed3;fill-opacity:1;stroke:none;stroke-width:0.786871;stroke-linecap:square;stroke-miterlimit:12.9;stroke-dasharray:none;stroke-opacity:1"
         d="M 9.5019315,10.085486 C 11.455877,8.8830566 14.174422,4.2333331 13.963996,2.7302966 c 2.284615,0.4509109 3.366801,2.7355263 3.33674,3.2766194 -1.863765,-0.030061 -5.604373,2.6657154 -7.5282588,4.49942"
         id="path47"
         sodipodi:nodetypes="cccc" />
      <path
         style="fill:#4111cd;fill-opacity:1;stroke:none;stroke-width:0.786871;stroke-linecap:square;stroke-miterlimit:12.9;stroke-dasharray:none;stroke-opacity:1"
         d="M 9.6294684,10.234279 C 12.022941,8.3505848 14.118828,4.4098595 15.311308,3.2469213 c 1.523215,0.8431615 1.773801,1.9408484 1.989428,2.7599947 -1.863765,-0.030061 -5.604373,2.6657154 -7.5282588,4.49942"
         id="path48"
         sodipodi:nodetypes="cccc" />
    </g>
    <g
       id="g46"
       transform="rotate(67.156198,2.0695983,13.577249)"
       inkscape:transform-center-x="-1.5587672"
       inkscape:transform-center-y="0.94691292">
      <path
         style="fill:#572ed3;fill-opacity:1;stroke:none;stroke-width:0.786871;stroke-linecap:square;stroke-miterlimit:12.9;stroke-dasharray:none;stroke-opacity:1"
         d="M 9.5019315,10.085486 C 11.455877,8.8830566 14.174422,4.2333331 13.963996,2.7302966 c 2.284615,0.4509109 3.366801,2.7355263 3.33674,3.2766194 -1.863765,-0.030061 -5.604373,2.6657154 -7.5282588,4.49942"
         id="path45"
         sodipodi:nodetypes="cccc" />
      <path
         style="fill:#4111cd;fill-opacity:1;stroke:none;stroke-width:0.786871;stroke-linecap:square;stroke-miterlimit:12.9;stroke-dasharray:none;stroke-opacity:1"
         d="M 9.6294684,10.234279 C 12.022941,8.3505848 14.118828,4.4098595 15.311308,3.2469213 c 1.523215,0.8431615 1.773801,1.9408484 1.989428,2.7599947 -1.863765,-0.030061 -5.604373,2.6657154 -7.5282588,4.49942"
         id="path46"
         sodipodi:nodetypes="cccc" />
    </g>
    <g
       id="g44"
       transform="rotate(99.519251,1.5130412,14.248504)"
       inkscape:transform-center-x="-1.8280286"
       inkscape:transform-center-y="1.2328565">
      <path
         style="fill:#572ed3;fill-opacity:1;stroke:none;stroke-width:0.786871;stroke-linecap:square;stroke-miterlimit:12.9;stroke-dasharray:none;stroke-opacity:1"
         d="M 9.5019315,10.085486 C 11.455877,8.8830566 14.174422,4.2333331 13.963996,2.7302966 c 2.284615,0.4509109 3.366801,2.7355263 3.33674,3.2766194 -1.863765,-0.030061 -5.604373,2.6657154 -7.5282588,4.49942"
         id="path43"
         sodipodi:nodetypes="cccc" />
      <path
         style="fill:#4111cd;fill-opacity:1;stroke:none;stroke-width:0.786871;stroke-linecap:square;stroke-miterlimit:12.9;stroke-dasharray:none;stroke-opacity:1"
         d="M 9.6294684,10.234279 C 12.022941,8.3505848 14.118828,4.4098595 15.311308,3.2469213 c 1.523215,0.8431615 1.773801,1.9408484 1.989428,2.7599947 -1.863765,-0.030061 -5.604373,2.6657154 -7.5282588,4.49942"
         id="path44"
         sodipodi:nodetypes="cccc" />
    </g>
    <g
       id="g42"
       transform="rotate(147.53765,1.973258,15.189384)">
      <path
         style="fill:#572ed3;fill-opacity:1;stroke:none;stroke-width:0.786871;stroke-linecap:square;stroke-miterlimit:12.9;stroke-dasharray:none;stroke-opacity:1"
         d="M 9.5019315,10.085486 C 11.455877,8.8830566 14.174422,4.2333331 13.963996,2.7302966 c 2.284615,0.4509109 3.366801,2.7355263 3.33674,3.2766194 -1.863765,-0.030061 -5.604373,2.6657154 -7.5282588,4.49942"
         id="path41"
         sodipodi:nodetypes="cccc" />
      <path
         style="fill:#4111cd;fill-opacity:1;stroke:none;stroke-width:0.786871;stroke-linecap:square;stroke-miterlimit:12.9;stroke-dasharray:none;stroke-opacity:1"
         d="M 9.6294684,10.234279 C 12.022941,8.3505848 14.118828,4.4098595 15.311308,3.2469213 c 1.523215,0.8431615 1.773801,1.9408484 1.989428,2.7599947 -1.863765,-0.030061 -5.604373,2.6657154 -7.5282588,4.49942"
         id="path42"
         sodipodi:nodetypes="cccc" />
    </g>
    <g
       id="g40"
       transform="rotate(-168.33859,2.255213,15.711556)">
      <path
         style="fill:#572ed3;fill-opacity:1;stroke:none;stroke-width:0.786871;stroke-linecap:square;stroke-miterlimit:12.9;stroke-dasharray:none;stroke-opacity:1"
         d="M 9.5019315,10.085486 C 11.455877,8.8830566 14.174422,4.2333331 13.963996,2.7302966 c 2.284615,0.4509109 3.366801,2.7355263 3.33674,3.2766194 -1.863765,-0.030061 -5.604373,2.6657154 -7.5282588,4.49942"
         id="path39"
         sodipodi:nodetypes="cccc" />
      <path
         style="fill:#4111cd;fill-opacity:1;stroke:none;stroke-width:0.786871;stroke-linecap:square;stroke-miterlimit:12.9;stroke-dasharray:none;stroke-opacity:1"
         d="M 9.6294684,10.234279 C 12.022941,8.3505848 14.118828,4.4098595 15.311308,3.2469213 c 1.523215,0.8431615 1.773801,1.9408484 1.989428,2.7599947 -1.863765,-0.030061 -5.604373,2.6657154 -7.5282588,4.49942"
         id="path40"
         sodipodi:nodetypes="cccc" />
    </g>
    <g
       id="g38"
       transform="rotate(-124.91066,2.5382573,16.034649)">
      <path
         style="fill:#572ed3;fill-opacity:1;stroke:none;stroke-width:0.786871;stroke-linecap:square;stroke-miterlimit:12.9;stroke-dasharray:none;stroke-opacity:1"
         d="M 9.5019315,10.085486 C 11.455877,8.8830566 14.174422,4.2333331 13.963996,2.7302966 c 2.284615,0.4509109 3.366801,2.7355263 3.33674,3.2766194 -1.863765,-0.030061 -5.604373,2.6657154 -7.5282588,4.49942"
         id="path37"
         sodipodi:nodetypes="cccc" />
      <path
         style="fill:#4111cd;fill-opacity:1;stroke:none;stroke-width:0.786871;stroke-linecap:square;stroke-miterlimit:12.9;stroke-dasharray:none;stroke-opacity:1"
         d="M 9.6294684,10.234279 C 12.022941,8.3505848 14.118828,4.4098595 15.311308,3.2469213 c 1.523215,0.8431615 1.773801,1.9408484 1.989428,2.7599947 -1.863765,-0.030061 -5.604373,2.6657154 -7.5282588,4.49942"
         id="path38"
         sodipodi:nodetypes="cccc" />
    </g>
    <g
       id="g36"
       transform="rotate(-80.906843,3.3186004,16.586186)">
      <path
         style="fill:#572ed3;fill-opacity:1;stroke:none;stroke-width:0.786871;stroke-linecap:square;stroke-miterlimit:12.9;stroke-dasharray:none;stroke-opacity:1"
         d="M 9.5019315,10.085486 C 11.455877,8.8830566 14.174422,4.2333331 13.963996,2.7302966 c 2.284615,0.4509109 3.366801,2.7355263 3.33674,3.2766194 -1.863765,-0.030061 -5.604373,2.6657154 -7.5282588,4.49942"
         id="path35"
         sodipodi:nodetypes="cccc" />
      <path
         style="fill:#4111cd;fill-opacity:1;stroke:none;stroke-width:0.786871;stroke-linecap:square;stroke-miterlimit:12.9;stroke-dasharray:none;stroke-opacity:1"
         d="M 9.6294684,10.234279 C 12.022941,8.3505848 14.118828,4.4098595 15.311308,3.2469213 c 1.523215,0.8431615 1.773801,1.9408484 1.989428,2.7599947 -1.863765,-0.030061 -5.604373,2.6657154 -7.5282588,4.49942"
         id="path36"
         sodipodi:nodetypes="cccc" />
    </g>
    <g
       id="g34"
       transform="rotate(-14.725488,3.4899455,30.257413)">
      <path
         style="fill:#572ed3;fill-opacity:1;stroke:none;stroke-width:0.786871;stroke-linecap:square;stroke-miterlimit:12.9;stroke-dasharray:none;stroke-opacity:1"
         d="M 9.5019315,10.085486 C 11.455877,8.8830566 14.174422,4.2333331 13.963996,2.7302966 c 2.284615,0.4509109 3.366801,2.7355263 3.33674,3.2766194 -1.863765,-0.030061 -5.604373,2.6657154 -7.5282588,4.49942"
         id="path33"
         sodipodi:nodetypes="cccc" />
      <path
         style="fill:#4111cd;fill-opacity:1;stroke:none;stroke-width:0.786871;stroke-linecap:square;stroke-miterlimit:12.9;stroke-dasharray:none;stroke-opacity:1"
         d="M 9.6294684,10.234279 C 12.022941,8.3505848 14.118828,4.4098595 15.311308,3.2469213 c 1.523215,0.8431615 1.773801,1.9408484 1.989428,2.7599947 -1.863765,-0.030061 -5.604373,2.6657154 -7.5282588,4.49942"
         id="path34"
         sodipodi:nodetypes="cccc" />
    </g>
    <circle
       style="fill:#a82737;fill-opacity:1;stroke:none;stroke-width:0.786871;stroke-linecap:square;stroke-miterlimit:12.9;stroke-dasharray:none;stroke-opacity:1"
       id="path5"
       cx="0.67697573"
       cy="17.090601"
       r="12.583638" />
    <g
       id="g10">
      <path
         style="fill:#572ed3;fill-opacity:1;stroke:none;stroke-width:0.786871;stroke-linecap:square;stroke-miterlimit:12.9;stroke-dasharray:none;stroke-opacity:1"
         d="M 9.5019315,10.085486 C 11.455877,8.8830566 14.174422,4.2333331 13.963996,2.7302966 c 2.284615,0.4509109 3.366801,2.7355263 3.33674,3.2766194 -1.863765,-0.030061 -5.604373,2.6657154 -7.5282588,4.49942"
         id="path6"
         sodipodi:nodetypes="cccc" />
      <path
         style="fill:#4111cd;fill-opacity:1;stroke:none;stroke-width:0.786871;stroke-linecap:square;stroke-miterlimit:12.9;stroke-dasharray:none;stroke-opacity:1"
         d="M 9.6294684,10.234279 C 12.022941,8.3505848 14.248819,6.6352775 15.441299,5.4723393 15.993538,5.8116554 16.53989,5.9613824 17.300736,6.006916 15.436971,5.976855 11.696363,8.6726314 9.7724772,10.506336"
         id="path7"
         sodipodi:nodetypes="cccc" />
    </g>
    <path
       id="circle7"
       style="fill:#cf325a;stroke-width:0.529347;stroke-linecap:square;stroke-miterlimit:12.9"
       d="m 12.208489,15.983512 c 0.128457,1.937835 -1.456198,3.602663 -2.274115,5.364116 -0.7061708,1.520799 -0.8724319,3.563699 -2.2711945,4.488344 -2.0138871,1.331271 -4.8145035,0.573484 -7.2266896,0.476624 -2.5403247,-0.102005 -5.6356215,0.567183 -7.5458332,-1.110538 -1.953331,-1.715591 -1.5288781,-4.973866 -2.1219147,-7.505084 -0.432674,-1.846754 -1.729087,-3.824266 -1.04524,-5.593463 C -9.4405609,9.9408412 -6.4573883,9.0969063 -4.7322624,7.9029345 -2.816178,6.5767991 -1.2348242,4.8312556 0.88740083,4.9029102 3.8584239,5.0032235 6.377352,7.4962943 8.4534814,9.6239051 10.172798,11.385856 12.045655,13.527091 12.208489,15.983512 Z"
       sodipodi:nodetypes="aaaaaaasaaa" />
    <path
       id="path8"
       style="fill:#d54d6f;fill-opacity:1;stroke-width:0.307563;stroke-linecap:square;stroke-miterlimit:12.9"
       d="M 6.5026552,20.36257 C 5.8766567,21.318524 4.1969407,20.583217 3.1357061,21.006896 1.8548169,21.518267 1.0123387,23.478574 -0.34637629,23.241779 -1.7650814,22.99453 -1.9766189,20.850364 -2.9784478,19.815862 c -1.0478527,-1.082027 -3.2328158,-1.382951 -3.493136,-2.866532 -0.2489711,-1.418901 1.6169264,-2.401404 2.2078976,-3.715185 0.567307,-1.261174 0.029106,-3.3264318 1.2624529,-3.9519329 1.3515055,-0.6854263 3.09833989,1.3206219 4.3112262,1.4424689 1.3471437,0.135334 2.7766676,-0.608446 3.6584528,0.237646 1.1945948,1.14624 0.255771,3.305438 0.5263533,4.93875 0.2491826,1.504137 1.8431026,3.185999 1.0078562,4.461493 z"
       sodipodi:nodetypes="aaaaaaasaaa" />
    <g
       id="g11"
       transform="rotate(-104.27358,0.55825899,16.330545)">
      <path
         style="fill:#572ed3;fill-opacity:1;stroke:none;stroke-width:0.786871;stroke-linecap:square;stroke-miterlimit:12.9;stroke-dasharray:none;stroke-opacity:1"
         d="M 9.5019315,10.085486 C 11.455877,8.8830566 14.174422,4.2333331 13.963996,2.7302966 c 2.284615,0.4509109 3.366801,2.7355263 3.33674,3.2766194 -1.863765,-0.030061 -5.604373,2.6657154 -7.5282588,4.49942"
         id="path10"
         sodipodi:nodetypes="cccc" />
      <path
         style="fill:#4111cd;fill-opacity:1;stroke:none;stroke-width:0.786871;stroke-linecap:square;stroke-miterlimit:12.9;stroke-dasharray:none;stroke-opacity:1"
         d="M 9.6294684,10.234279 C 12.022941,8.3505848 14.248819,6.6352775 15.441299,5.4723393 15.993538,5.8116554 16.53989,5.9613824 17.300736,6.006916 15.436971,5.976855 11.696363,8.6726314 9.7724772,10.506336"
         id="path11"
         sodipodi:nodetypes="cccc" />
    </g>
    <g
       id="g13"
       transform="matrix(-0.96171142,0.00656502,-0.00558344,-1.1307839,2.1470068,36.261359)"
       inkscape:transform-center-x="0.28619679"
       inkscape:transform-center-y="-2.8363087">
      <path
         style="fill:#572ed3;fill-opacity:1;stroke:none;stroke-width:0.786871;stroke-linecap:square;stroke-miterlimit:12.9;stroke-dasharray:none;stroke-opacity:1"
         d="M 9.5019315,10.085486 C 11.455877,8.8830566 14.174422,4.2333331 13.963996,2.7302966 c 2.284615,0.4509109 3.366801,2.7355263 3.33674,3.2766194 -1.863765,-0.030061 -5.604373,2.6657154 -7.5282588,4.49942"
         id="path12"
         sodipodi:nodetypes="cccc" />
      <path
         style="fill:#4111cd;fill-opacity:1;stroke:none;stroke-width:0.786871;stroke-linecap:square;stroke-miterlimit:12.9;stroke-dasharray:none;stroke-opacity:1"
         d="M 9.6294684,10.234279 C 12.022941,8.3505848 14.248819,6.6352775 15.441299,5.4723393 15.993538,5.8116554 16.53989,5.9613824 17.300736,6.006916 15.436971,5.976855 11.696363,8.6726314 9.7724772,10.506336"
         id="path13"
         sodipodi:nodetypes="cccc" />
    </g>
    <g
       id="g15"
       transform="rotate(87.072798,2.5484449,17.058428)">
      <path
         style="fill:#572ed3;fill-opacity:1;stroke:none;stroke-width:0.786871;stroke-linecap:square;stroke-miterlimit:12.9;stroke-dasharray:none;stroke-opacity:1"
         d="M 9.5019315,10.085486 C 11.455877,8.8830566 14.174422,4.2333331 13.963996,2.7302966 c 2.284615,0.4509109 3.366801,2.7355263 3.33674,3.2766194 -1.863765,-0.030061 -5.604373,2.6657154 -7.5282588,4.49942"
         id="path14"
         sodipodi:nodetypes="cccc" />
      <path
         style="fill:#4111cd;fill-opacity:1;stroke:none;stroke-width:0.786871;stroke-linecap:square;stroke-miterlimit:12.9;stroke-dasharray:none;stroke-opacity:1"
         d="M 9.6294684,10.234279 C 12.022941,8.3505848 14.248819,6.6352775 15.441299,5.4723393 15.993538,5.8116554 16.53989,5.9613824 17.300736,6.006916 15.436971,5.976855 11.696363,8.6726314 9.7724772,10.506336"
         id="path15"
         sodipodi:nodetypes="cccc" />
    </g>
    <g
       id="g19"
       transform="rotate(29.065076,-2.5643195,7.9407644)">
      <path
         style="fill:#572ed3;fill-opacity:1;stroke:none;stroke-width:0.786871;stroke-linecap:square;stroke-miterlimit:12.9;stroke-dasharray:none;stroke-opacity:1"
         d="M 9.0850582,9.4035742 C 11.039004,8.2011448 11.577241,5.5995 11.366815,4.0964635 14.359397,3.5570392 15.202943,6.1856868 14.703555,7.3730829 12.83979,7.3430219 11.27949,7.9907196 9.3556042,9.8244242"
         id="path18"
         sodipodi:nodetypes="cccc" />
      <path
         style="fill:#4111cd;fill-opacity:1;stroke:none;stroke-width:0.786871;stroke-linecap:square;stroke-miterlimit:12.9;stroke-dasharray:none;stroke-opacity:1"
         d="M 9.2125952,9.5523672 C 11.606068,7.668673 11.651638,8.0014444 12.844118,6.8385062 13.396357,7.1778223 13.942709,7.3275493 14.703555,7.3730829 12.83979,7.3430219 11.27949,7.9907196 9.3556042,9.8244242"
         id="path19"
         sodipodi:nodetypes="cccc" />
    </g>
    <g
       id="g21"
       transform="rotate(-122.16223,4.9011236,16.499629)">
      <path
         style="fill:#572ed3;fill-opacity:1;stroke:none;stroke-width:0.786871;stroke-linecap:square;stroke-miterlimit:12.9;stroke-dasharray:none;stroke-opacity:1"
         d="M 9.0850582,9.4035742 C 11.039004,8.2011448 11.577241,5.5995 11.366815,4.0964635 14.359397,3.5570392 15.202943,6.1856868 14.703555,7.3730829 12.83979,7.3430219 11.27949,7.9907196 9.3556042,9.8244242"
         id="path20"
         sodipodi:nodetypes="cccc" />
      <path
         style="fill:#4111cd;fill-opacity:1;stroke:none;stroke-width:0.786871;stroke-linecap:square;stroke-miterlimit:12.9;stroke-dasharray:none;stroke-opacity:1"
         d="M 9.2125952,9.5523672 C 11.606068,7.668673 11.651638,8.0014444 12.844118,6.8385062 13.396357,7.1778223 13.942709,7.3275493 14.703555,7.3730829 12.83979,7.3430219 11.27949,7.9907196 9.3556042,9.8244242"
         id="path21"
         sodipodi:nodetypes="cccc" />
    </g>
    <ellipse
       style="fill:#572ed3;fill-opacity:1;stroke:none;stroke-width:0.882831;stroke-linecap:square;stroke-miterlimit:12.9;stroke-dasharray:none;stroke-opacity:1"
       id="path24"
       cx="2.1857517"
       cy="16.511679"
       rx="1.9555655"
       ry="2.0748072" />
    <g
       id="g26"
       transform="rotate(126.92784,1.567668,17.109659)">
      <path
         style="fill:#572ed3;fill-opacity:1;stroke:none;stroke-width:0.786871;stroke-linecap:square;stroke-miterlimit:12.9;stroke-dasharray:none;stroke-opacity:1"
         d="M 9.5019315,10.085486 C 11.455877,8.8830566 14.174422,4.2333331 13.963996,2.7302966 c 2.284615,0.4509109 3.366801,2.7355263 3.33674,3.2766194 -1.863765,-0.030061 -5.604373,2.6657154 -7.5282588,4.49942"
         id="path25"
         sodipodi:nodetypes="cccc" />
      <path
         style="fill:#4111cd;fill-opacity:1;stroke:none;stroke-width:0.786871;stroke-linecap:square;stroke-miterlimit:12.9;stroke-dasharray:none;stroke-opacity:1"
         d="M 9.6294684,10.234279 C 12.022941,8.3505848 14.248819,6.6352775 15.441299,5.4723393 15.993538,5.8116554 16.53989,5.9613824 17.300736,6.006916 15.436971,5.976855 11.696363,8.6726314 9.7724772,10.506336"
         id="path26"
         sodipodi:nodetypes="cccc" />
    </g>
    <g
       id="g17"
       transform="matrix(-0.56230061,0.8528208,-0.8269329,-0.57990395,15.08747,18.763442)">
      <path
         style="fill:#572ed3;fill-opacity:1;stroke:none;stroke-width:0.786871;stroke-linecap:square;stroke-miterlimit:12.9;stroke-dasharray:none;stroke-opacity:1"
         d="M 9.0850582,9.4035742 C 11.039004,8.2011448 11.577241,5.5995 11.366815,4.0964635 14.359397,3.5570392 15.202943,6.1856868 14.703555,7.3730829 12.83979,7.3430219 11.27949,7.9907196 9.3556042,9.8244242"
         id="path16"
         sodipodi:nodetypes="cccc" />
      <path
         style="fill:#4111cd;fill-opacity:1;stroke:none;stroke-width:0.786871;stroke-linecap:square;stroke-miterlimit:12.9;stroke-dasharray:none;stroke-opacity:1"
         d="M 9.2125952,9.5523672 C 11.606068,7.668673 11.651638,8.0014444 12.844118,6.8385062 13.396357,7.1778223 13.942709,7.3275493 14.703555,7.3730829 12.83979,7.3430219 11.27949,7.9907196 9.3556042,9.8244242"
         id="path17"
         sodipodi:nodetypes="cccc" />
    </g>
    <g
       id="g28"
       transform="matrix(-0.64240827,-0.71571193,0.8429525,-0.75374696,-12.850258,31.989117)"
       inkscape:transform-center-x="-2.6985701"
       inkscape:transform-center-y="-1.9826469">
      <path
         style="fill:#572ed3;fill-opacity:1;stroke:none;stroke-width:0.786871;stroke-linecap:square;stroke-miterlimit:12.9;stroke-dasharray:none;stroke-opacity:1"
         d="M 9.5019315,10.085486 C 11.455877,8.8830566 14.174422,4.2333331 13.963996,2.7302966 c 2.284615,0.4509109 3.366801,2.7355263 3.33674,3.2766194 -1.863765,-0.030061 -5.604373,2.6657154 -7.5282588,4.49942"
         id="path27"
         sodipodi:nodetypes="cccc" />
      <path
         style="fill:#4111cd;fill-opacity:1;stroke:none;stroke-width:0.786871;stroke-linecap:square;stroke-miterlimit:12.9;stroke-dasharray:none;stroke-opacity:1"
         d="M 9.6294684,10.234279 C 12.022941,8.3505848 14.248819,6.6352775 15.441299,5.4723393 15.993538,5.8116554 16.53989,5.9613824 17.300736,6.006916 15.436971,5.976855 11.696363,8.6726314 9.7724772,10.506336"
         id="path28"
         sodipodi:nodetypes="cccc" />
    </g>
    <g
       id="g30"
       transform="matrix(0.58562685,-0.76287164,0.89567529,0.69026746,-13.968101,5.9166536)"
       inkscape:transform-center-x="-1.6923692"
       inkscape:transform-center-y="2.2674365">
      <path
         style="fill:#572ed3;fill-opacity:1;stroke:none;stroke-width:0.786871;stroke-linecap:square;stroke-miterlimit:12.9;stroke-dasharray:none;stroke-opacity:1"
         d="M 9.5019315,10.085486 C 11.455877,8.8830566 14.455178,4.6667957 14.244752,3.1637592 16.529367,3.6146701 17.570751,5.5462515 17.54069,6.0873446 15.676925,6.0572836 11.696363,8.6726314 9.7724772,10.506336"
         id="path29"
         sodipodi:nodetypes="cccc" />
      <path
         style="fill:#4111cd;fill-opacity:1;stroke:none;stroke-width:0.786871;stroke-linecap:square;stroke-miterlimit:12.9;stroke-dasharray:none;stroke-opacity:1"
         d="M 9.6294684,10.234279 C 12.022941,8.3505848 14.248819,6.6352775 15.441299,5.4723393 15.993538,5.8116554 16.53989,5.9613824 17.300736,6.006916 15.436971,5.976855 11.696363,8.6726314 9.7724772,10.506336"
         id="path30"
         sodipodi:nodetypes="cccc" />
    </g>
    <g
       id="g23"
       transform="matrix(0.55615739,-0.87796397,0.83107699,0.5875342,-11.808984,13.943168)">
      <path
         style="fill:#572ed3;fill-opacity:1;stroke:none;stroke-width:0.786871;stroke-linecap:square;stroke-miterlimit:12.9;stroke-dasharray:none;stroke-opacity:1"
         d="M 9.0850582,9.4035742 C 11.039004,8.2011448 11.577241,5.5995 11.366815,4.0964635 14.359397,3.5570392 15.202943,6.1856868 14.703555,7.3730829 12.83979,7.3430219 11.27949,7.9907196 9.3556042,9.8244242"
         id="path22"
         sodipodi:nodetypes="cccc" />
      <path
         style="fill:#4111cd;fill-opacity:1;stroke:none;stroke-width:0.786871;stroke-linecap:square;stroke-miterlimit:12.9;stroke-dasharray:none;stroke-opacity:1"
         d="M 9.2125952,9.5523672 C 11.606068,7.668673 11.651638,8.0014444 12.844118,6.8385062 13.396357,7.1778223 13.942709,7.3275493 14.703555,7.3730829 12.83979,7.3430219 11.27949,7.9907196 9.3556042,9.8244242"
         id="path23"
         sodipodi:nodetypes="cccc" />
    </g>
    <g
       id="g32"
       transform="matrix(0.63196075,0.72495349,-0.85379542,0.74144236,15.498488,2.5853178)"
       inkscape:transform-center-x="2.7253016"
       inkscape:transform-center-y="2.002711">
      <path
         style="fill:#572ed3;fill-opacity:1;stroke:none;stroke-width:0.786871;stroke-linecap:square;stroke-miterlimit:12.9;stroke-dasharray:none;stroke-opacity:1"
         d="M 9.5019315,10.085486 C 11.455877,8.8830566 14.174422,4.2333331 13.963996,2.7302966 c 2.284615,0.4509109 3.366801,2.7355263 3.33674,3.2766194 -1.863765,-0.030061 -5.604373,2.6657154 -7.5282588,4.49942"
         id="path31"
         sodipodi:nodetypes="cccc" />
      <path
         style="fill:#4111cd;fill-opacity:1;stroke:none;stroke-width:0.786871;stroke-linecap:square;stroke-miterlimit:12.9;stroke-dasharray:none;stroke-opacity:1"
         d="M 9.6294684,10.234279 C 12.022941,8.3505848 14.248819,6.6352775 15.441299,5.4723393 15.993538,5.8116554 16.53989,5.9613824 17.300736,6.006916 15.436971,5.976855 11.696363,8.6726314 9.7724772,10.506336"
         id="path32"
         sodipodi:nodetypes="cccc" />
    </g>
  </g>
</svg>
